<?xml version="1.0" encoding="utf-8"?>
<!-- Generator: Adobe Illustrator 15.0.0, SVG Export Plug-In . SVG Version: 6.00 Build 0)  -->
<!DOCTYPE svg PUBLIC "-//W3C//DTD SVG 1.1//EN" "http://www.w3.org/Graphics/SVG/1.1/DTD/svg11.dtd">
<svg version="1.1" id="图层_1" xmlns="http://www.w3.org/2000/svg" xmlns:xlink="http://www.w3.org/1999/xlink" x="0px" y="0px"
	 width="126.259px" height="33.667px" viewBox="0 0 126.259 33.667" enable-background="new 0 0 126.259 33.667"
	 xml:space="preserve">
<g>
	<path d="M82.25-170.202h-3.087c-0.294,0-0.534-0.239-0.534-0.534v-4.758c0-0.295-0.239-0.534-0.534-0.534h-5.2
		c-0.295,0-0.534,0.239-0.534,0.534v4.758c0,0.295-0.239,0.534-0.534,0.534H68.73c-0.295,0-0.534-0.239-0.534-0.534v-13.858
		c0-0.295,0.239-0.534,0.534-0.534h3.097c0.295,0,0.534,0.239,0.534,0.534v4.414c0,0.295,0.239,0.534,0.534,0.534h5.2
		c0.295,0,0.534-0.239,0.534-0.534v-4.414c0-0.295,0.239-0.534,0.534-0.534h3.087c0.295,0,0.534,0.239,0.534,0.534v13.858
		C82.784-170.44,82.544-170.202,82.25-170.202z"/>
	<path d="M89.902-170.202h-3.096c-0.295,0-0.534-0.239-0.534-0.534v-13.858c0-0.295,0.239-0.534,0.534-0.534h3.096
		c0.295,0,0.534,0.239,0.534,0.534v13.858C90.436-170.44,90.197-170.202,89.902-170.202z"/>
	<path d="M106.631-181.499h-3.993c-0.295,0-0.534,0.239-0.534,0.534v10.229c0,0.295-0.239,0.534-0.534,0.534h-3.087
		c-0.295,0-0.534-0.239-0.534-0.534v-10.229c0-0.295-0.239-0.534-0.534-0.534h-3.994c-0.295,0-0.534-0.239-0.534-0.534v-2.562
		c0-0.295,0.239-0.534,0.534-0.534h13.21c0.295,0,0.534,0.239,0.534,0.534v2.562C107.166-181.737,106.926-181.499,106.631-181.499z"
		/>
	<path fill="#2EA7E0" d="M121.554-180.433c0,0.554-0.088,1.094-0.264,1.622c-0.176,0.528-0.46,1.02-0.852,1.475
		c-0.393,0.456-0.922,0.826-1.589,1.109c-0.668,0.284-1.454,0.425-2.356,0.425h-2.196c-0.295,0-0.534,0.239-0.534,0.534v4.532
		c0,0.295-0.239,0.534-0.534,0.534h-3.097c-0.295,0-0.534-0.239-0.534-0.534v-13.858c0-0.295,0.239-0.534,0.534-0.534h6.361
		c0.903,0,1.688,0.144,2.356,0.431c0.667,0.287,1.197,0.66,1.589,1.12c0.392,0.459,0.675,0.958,0.852,1.497
		C121.465-181.542,121.554-180.992,121.554-180.433z M117.309-180.411c0-0.71-0.194-1.197-0.583-1.459
		c-0.389-0.262-1.085-0.394-2.087-0.394h-0.877v3.598h0.897c0.69,0,1.222-0.047,1.594-0.141c0.372-0.093,0.641-0.265,0.807-0.517
		C117.226-179.574,117.309-179.937,117.309-180.411z"/>
	<path fill="#2EA7E0" d="M138.641-177.675c0,1.393-0.297,2.674-0.891,3.845c-0.595,1.17-1.48,2.1-2.655,2.789
		c-1.176,0.69-2.607,1.034-4.295,1.034c-1.708,0-3.152-0.359-4.334-1.077c-1.183-0.717-2.061-1.662-2.635-2.832
		c-0.575-1.17-0.863-2.423-0.863-3.758c0-1.342,0.286-2.597,0.857-3.764c0.571-1.167,1.449-2.107,2.635-2.822
		c1.186-0.714,2.632-1.071,4.339-1.071c1.275,0,2.413,0.205,3.413,0.614c1,0.409,1.822,0.963,2.466,1.664
		c0.644,0.7,1.132,1.515,1.464,2.444C138.476-179.68,138.641-178.702,138.641-177.675z M134.397-177.675
		c0-0.56-0.076-1.071-0.229-1.535c-0.153-0.463-0.383-0.865-0.692-1.206s-0.686-0.606-1.131-0.797
		c-0.445-0.19-0.96-0.286-1.544-0.286c-1.116,0-1.993,0.352-2.63,1.056s-0.957,1.626-0.957,2.768s0.32,2.066,0.961,2.773
		s1.516,1.061,2.625,1.061c0.764,0,1.415-0.164,1.953-0.49c0.538-0.327,0.946-0.779,1.226-1.357
		C134.257-176.266,134.397-176.928,134.397-177.675z"/>
	<path fill="#2EA7E0" d="M144.883-170.202h-3.097c-0.295,0-0.534-0.239-0.534-0.534v-13.858c0-0.295,0.239-0.534,0.534-0.534h3.097
		c0.295,0,0.534,0.239,0.534,0.534v13.858C145.417-170.44,145.178-170.202,144.883-170.202z"/>
	<path fill="#2EA7E0" d="M163.366-170.202h-2.928c-0.155,0-0.303-0.067-0.404-0.185l-6.065-7.039
		c-0.323-0.375-0.938-0.146-0.938,0.349v6.342c0,0.295-0.239,0.534-0.534,0.534h-3.058c-0.295,0-0.534-0.239-0.534-0.534v-13.858
		c0-0.295,0.239-0.534,0.534-0.534h2.918c0.155,0,0.303,0.067,0.404,0.185l6.046,7c0.324,0.374,0.938,0.146,0.938-0.349v-6.302
		c0-0.295,0.239-0.534,0.534-0.534h3.087c0.295,0,0.534,0.239,0.534,0.534v13.858C163.9-170.44,163.661-170.202,163.366-170.202z"/>
	<path fill="#2EA7E0" d="M180.076-181.499h-3.993c-0.295,0-0.534,0.239-0.534,0.534v10.229c0,0.295-0.239,0.534-0.534,0.534h-3.087
		c-0.295,0-0.534-0.239-0.534-0.534v-10.229c0-0.295-0.239-0.534-0.534-0.534h-3.994c-0.295,0-0.534-0.239-0.534-0.534v-2.562
		c0-0.295,0.239-0.534,0.534-0.534h13.21c0.295,0,0.534,0.239,0.534,0.534v2.562C180.61-181.737,180.371-181.499,180.076-181.499z"
		/>
</g>
<g>
	<path fill="#2EA7E0" d="M35.034-190.05c-0.143,0-0.288-0.011-0.434-0.035c-1.494-0.238-2.512-1.642-2.274-3.135
		c0.102-0.642,0.154-1.299,0.154-1.956c0-6.797-5.53-12.326-12.327-12.326c-5.34,0-10.047,3.406-11.713,8.475
		c-0.473,1.438-2.021,2.219-3.458,1.747c-1.438-0.472-2.22-2.02-1.748-3.458c2.406-7.323,9.205-12.243,16.918-12.243
		c9.818,0,17.805,7.987,17.805,17.805c0,0.943-0.075,1.891-0.222,2.816C37.521-191.011,36.356-190.05,35.034-190.05z"/>
</g>
<g>
	<path fill="#036EB8" d="M11.345-165.244c-6.255,6.255-16.434,6.255-22.689,0s-6.255-16.434,0-22.689
		c6.255-6.256,16.434-6.256,22.689,0c1.07,1.069,1.07,2.804,0,3.874s-2.804,1.07-3.874,0c-4.119-4.12-10.822-4.12-14.941,0
		c-4.12,4.12-4.12,10.822,0,14.942c4.119,4.119,10.822,4.119,14.941,0c1.07-1.07,2.804-1.07,3.874,0S12.415-166.313,11.345-165.244z
		"/>
</g>
<g>
	<path fill="#2EA7E0" d="M39.327-160.544H18c-1.513,0-2.739-1.226-2.739-2.739c0-1.513,1.226-2.739,2.739-2.739h21.326
		c6.797,0,12.326-5.529,12.326-12.326c0-6.796-5.529-12.326-12.326-12.326c-1.199,0-2.382,0.171-3.518,0.508
		c-1.45,0.432-2.975-0.395-3.406-1.846c-0.431-1.45,0.396-2.975,1.846-3.406c1.642-0.488,3.351-0.735,5.078-0.735
		c9.817,0,17.805,7.987,17.805,17.805S49.144-160.544,39.327-160.544z"/>
</g>
<g>
	<path d="M82.25-370.765h-3.087c-0.294,0-0.534-0.239-0.534-0.534v-4.758c0-0.295-0.239-0.534-0.534-0.534h-5.2
		c-0.295,0-0.534,0.239-0.534,0.534v4.758c0,0.295-0.239,0.534-0.534,0.534H68.73c-0.295,0-0.534-0.239-0.534-0.534v-13.858
		c0-0.295,0.239-0.534,0.534-0.534h3.097c0.295,0,0.534,0.239,0.534,0.534v4.414c0,0.295,0.239,0.534,0.534,0.534h5.2
		c0.295,0,0.534-0.239,0.534-0.534v-4.414c0-0.295,0.239-0.534,0.534-0.534h3.087c0.295,0,0.534,0.239,0.534,0.534v13.858
		C82.784-371.004,82.544-370.765,82.25-370.765z"/>
	<path d="M89.902-370.765h-3.096c-0.295,0-0.534-0.239-0.534-0.534v-13.858c0-0.295,0.239-0.534,0.534-0.534h3.096
		c0.295,0,0.534,0.239,0.534,0.534v13.858C90.436-371.004,90.197-370.765,89.902-370.765z"/>
	<path d="M106.631-382.062h-3.993c-0.295,0-0.534,0.239-0.534,0.534v10.229c0,0.295-0.239,0.534-0.534,0.534h-3.087
		c-0.295,0-0.534-0.239-0.534-0.534v-10.229c0-0.295-0.239-0.534-0.534-0.534h-3.994c-0.295,0-0.534-0.239-0.534-0.534v-2.562
		c0-0.295,0.239-0.534,0.534-0.534h13.21c0.295,0,0.534,0.239,0.534,0.534v2.562C107.166-382.301,106.926-382.062,106.631-382.062z"
		/>
	<path fill="#036EB8" d="M121.554-380.996c0,0.553-0.088,1.093-0.264,1.621c-0.176,0.528-0.46,1.02-0.852,1.475
		c-0.393,0.456-0.922,0.826-1.589,1.109c-0.668,0.284-1.454,0.426-2.356,0.426h-2.196c-0.295,0-0.534,0.239-0.534,0.534v4.532
		c0,0.295-0.239,0.534-0.534,0.534h-3.097c-0.295,0-0.534-0.239-0.534-0.534v-13.858c0-0.295,0.239-0.534,0.534-0.534h6.361
		c0.903,0,1.688,0.144,2.356,0.431c0.667,0.287,1.197,0.661,1.589,1.12c0.392,0.459,0.675,0.958,0.852,1.497
		C121.465-382.105,121.554-381.556,121.554-380.996z M117.309-380.974c0-0.71-0.194-1.197-0.583-1.459
		c-0.389-0.262-1.085-0.393-2.087-0.393h-0.877v3.597h0.897c0.69,0,1.222-0.047,1.594-0.14c0.372-0.093,0.641-0.266,0.807-0.517
		C117.226-380.138,117.309-380.5,117.309-380.974z"/>
	<path fill="#036EB8" d="M138.641-378.239c0,1.393-0.297,2.674-0.891,3.845c-0.595,1.17-1.48,2.1-2.655,2.789
		c-1.176,0.689-2.607,1.034-4.295,1.034c-1.708,0-3.152-0.359-4.334-1.077c-1.183-0.718-2.061-1.662-2.635-2.833
		c-0.575-1.17-0.863-2.423-0.863-3.758c0-1.342,0.286-2.597,0.857-3.764c0.571-1.167,1.449-2.107,2.635-2.821
		s2.632-1.071,4.339-1.071c1.275,0,2.413,0.204,3.413,0.614c1,0.409,1.822,0.963,2.466,1.664c0.644,0.7,1.132,1.515,1.464,2.444
		C138.476-380.243,138.641-379.265,138.641-378.239z M134.397-378.239c0-0.56-0.076-1.071-0.229-1.534
		c-0.153-0.463-0.383-0.866-0.692-1.207s-0.686-0.606-1.131-0.796c-0.445-0.19-0.96-0.286-1.544-0.286
		c-1.116,0-1.993,0.352-2.63,1.055c-0.638,0.704-0.957,1.626-0.957,2.768s0.32,2.066,0.961,2.773s1.516,1.061,2.625,1.061
		c0.764,0,1.415-0.164,1.953-0.49c0.538-0.327,0.946-0.779,1.226-1.357C134.257-376.83,134.397-377.492,134.397-378.239z"/>
	<path fill="#036EB8" d="M144.883-370.765h-3.097c-0.295,0-0.534-0.239-0.534-0.534v-13.858c0-0.295,0.239-0.534,0.534-0.534h3.097
		c0.295,0,0.534,0.239,0.534,0.534v13.858C145.417-371.004,145.178-370.765,144.883-370.765z"/>
	<path fill="#036EB8" d="M163.366-370.765h-2.928c-0.155,0-0.303-0.068-0.404-0.186l-6.065-7.039
		c-0.323-0.375-0.938-0.146-0.938,0.349v6.342c0,0.295-0.239,0.534-0.534,0.534h-3.058c-0.295,0-0.534-0.239-0.534-0.534v-13.858
		c0-0.295,0.239-0.534,0.534-0.534h2.918c0.155,0,0.303,0.067,0.404,0.185l6.046,7c0.324,0.375,0.938,0.146,0.938-0.349v-6.302
		c0-0.295,0.239-0.534,0.534-0.534h3.087c0.295,0,0.534,0.239,0.534,0.534v13.858C163.9-371.004,163.661-370.765,163.366-370.765z"
		/>
	<path fill="#036EB8" d="M180.076-382.062h-3.993c-0.295,0-0.534,0.239-0.534,0.534v10.229c0,0.295-0.239,0.534-0.534,0.534h-3.087
		c-0.295,0-0.534-0.239-0.534-0.534v-10.229c0-0.295-0.239-0.534-0.534-0.534h-3.994c-0.295,0-0.534-0.239-0.534-0.534v-2.562
		c0-0.295,0.239-0.534,0.534-0.534h13.21c0.295,0,0.534,0.239,0.534,0.534v2.562C180.61-382.301,180.371-382.062,180.076-382.062z"
		/>
</g>
<g>
	<path fill="#036EB8" d="M35.034-390.613c-0.143,0-0.288-0.011-0.434-0.035c-1.494-0.237-2.512-1.641-2.274-3.135
		c0.102-0.642,0.154-1.299,0.154-1.956c0-6.797-5.53-12.326-12.327-12.326c-5.34,0-10.047,3.406-11.713,8.475
		c-0.473,1.438-2.021,2.219-3.458,1.747c-1.438-0.472-2.22-2.02-1.748-3.457c2.406-7.323,9.205-12.243,16.918-12.243
		c9.818,0,17.805,7.987,17.805,17.805c0,0.943-0.075,1.891-0.222,2.816C37.521-391.574,36.356-390.613,35.034-390.613z"/>
</g>
<g>
	<path fill="#2EA7E0" d="M0-361.108c-8.847,0-16.043-7.197-16.043-16.043c0-8.847,7.197-16.044,16.043-16.044
		s16.044,7.197,16.044,16.044c0,1.513-1.227,2.739-2.739,2.739c-1.513,0-2.739-1.226-2.739-2.739c0-5.826-4.74-10.565-10.565-10.565
		s-10.565,4.74-10.565,10.565S-5.826-366.586,0-366.586c1.513,0,2.739,1.226,2.739,2.739C2.739-362.334,1.513-361.108,0-361.108z"/>
</g>
<g>
	<path fill="#036EB8" d="M39.327-361.108H18c-1.513,0-2.739-1.226-2.739-2.739c0-1.513,1.226-2.739,2.739-2.739h21.326
		c6.797,0,12.326-5.53,12.326-12.327c0-6.796-5.529-12.326-12.326-12.326c-1.199,0-2.382,0.171-3.518,0.508
		c-1.45,0.432-2.975-0.395-3.406-1.845c-0.431-1.45,0.396-2.975,1.846-3.406c1.642-0.488,3.351-0.736,5.078-0.736
		c9.817,0,17.805,7.987,17.805,17.805C57.131-369.095,49.144-361.108,39.327-361.108z"/>
</g>
<g>
	<path fill="#3E3A39" d="M443.762-170.202h-3.086c-0.295,0-0.534-0.239-0.534-0.534v-4.758c0-0.295-0.239-0.534-0.534-0.534h-5.2
		c-0.294,0-0.533,0.239-0.533,0.534v4.758c0,0.295-0.239,0.534-0.534,0.534h-3.098c-0.295,0-0.533-0.239-0.533-0.534v-13.858
		c0-0.295,0.238-0.534,0.533-0.534h3.098c0.295,0,0.534,0.239,0.534,0.534v4.414c0,0.295,0.239,0.534,0.533,0.534h5.2
		c0.295,0,0.534-0.239,0.534-0.534v-4.414c0-0.295,0.239-0.534,0.534-0.534h3.086c0.295,0,0.534,0.239,0.534,0.534v13.858
		C444.296-170.44,444.057-170.202,443.762-170.202z"/>
	<path fill="#3E3A39" d="M451.415-170.202h-3.097c-0.295,0-0.534-0.239-0.534-0.534v-13.858c0-0.295,0.239-0.534,0.534-0.534h3.097
		c0.294,0,0.533,0.239,0.533,0.534v13.858C451.948-170.44,451.709-170.202,451.415-170.202z"/>
	<path fill="#3E3A39" d="M468.144-181.499h-3.993c-0.295,0-0.534,0.239-0.534,0.534v10.229c0,0.295-0.238,0.534-0.533,0.534h-3.088
		c-0.295,0-0.534-0.239-0.534-0.534v-10.229c0-0.295-0.238-0.534-0.533-0.534h-3.994c-0.295,0-0.533-0.239-0.533-0.534v-2.562
		c0-0.295,0.238-0.534,0.533-0.534h13.21c0.295,0,0.534,0.239,0.534,0.534v2.562C468.678-181.737,468.438-181.499,468.144-181.499z"
		/>
	<path fill="#3E3A39" d="M483.066-180.433c0,0.554-0.089,1.094-0.265,1.622s-0.46,1.02-0.852,1.475
		c-0.392,0.456-0.922,0.826-1.589,1.109c-0.668,0.284-1.454,0.425-2.356,0.425h-2.196c-0.295,0-0.534,0.239-0.534,0.534v4.532
		c0,0.295-0.239,0.534-0.534,0.534h-3.097c-0.295,0-0.534-0.239-0.534-0.534v-13.858c0-0.295,0.239-0.534,0.534-0.534h6.361
		c0.902,0,1.688,0.144,2.356,0.431c0.667,0.287,1.197,0.66,1.589,1.12s0.676,0.958,0.852,1.497
		C482.978-181.542,483.066-180.992,483.066-180.433z M478.821-180.411c0-0.71-0.194-1.197-0.583-1.459
		c-0.389-0.262-1.084-0.394-2.087-0.394h-0.877v3.598h0.896c0.69,0,1.222-0.047,1.595-0.141c0.372-0.093,0.641-0.265,0.807-0.517
		S478.821-179.937,478.821-180.411z"/>
	<path fill="#3E3A39" d="M500.153-177.675c0,1.393-0.297,2.674-0.891,3.845c-0.595,1.17-1.48,2.1-2.655,2.789
		c-1.177,0.69-2.607,1.034-4.295,1.034c-1.708,0-3.152-0.359-4.334-1.077c-1.183-0.717-2.062-1.662-2.636-2.832
		c-0.575-1.17-0.862-2.423-0.862-3.758c0-1.342,0.286-2.597,0.857-3.764s1.449-2.107,2.635-2.822
		c1.187-0.714,2.632-1.071,4.34-1.071c1.275,0,2.413,0.205,3.412,0.614c1,0.409,1.822,0.963,2.467,1.664
		c0.644,0.7,1.132,1.515,1.464,2.444C499.988-179.68,500.153-178.702,500.153-177.675z M495.909-177.675
		c0-0.56-0.076-1.071-0.229-1.535c-0.152-0.463-0.383-0.865-0.692-1.206c-0.309-0.341-0.686-0.606-1.131-0.797
		c-0.444-0.19-0.96-0.286-1.544-0.286c-1.116,0-1.993,0.352-2.631,1.056s-0.956,1.626-0.956,2.768s0.32,2.066,0.961,2.773
		c0.642,0.707,1.517,1.061,2.626,1.061c0.764,0,1.415-0.164,1.953-0.49c0.538-0.327,0.946-0.779,1.226-1.357
		C495.77-176.266,495.909-176.928,495.909-177.675z"/>
	<path fill="#3E3A39" d="M506.396-170.202h-3.097c-0.295,0-0.534-0.239-0.534-0.534v-13.858c0-0.295,0.239-0.534,0.534-0.534h3.097
		c0.295,0,0.534,0.239,0.534,0.534v13.858C506.93-170.44,506.69-170.202,506.396-170.202z"/>
	<path fill="#3E3A39" d="M524.879-170.202h-2.929c-0.155,0-0.303-0.067-0.404-0.185l-6.065-7.039
		c-0.323-0.375-0.938-0.146-0.938,0.349v6.342c0,0.295-0.239,0.534-0.534,0.534h-3.058c-0.295,0-0.533-0.239-0.533-0.534v-13.858
		c0-0.295,0.238-0.534,0.533-0.534h2.919c0.155,0,0.303,0.067,0.404,0.185l6.046,7c0.324,0.374,0.938,0.146,0.938-0.349v-6.302
		c0-0.295,0.239-0.534,0.534-0.534h3.087c0.295,0,0.533,0.239,0.533,0.534v13.858C525.412-170.44,525.174-170.202,524.879-170.202z"
		/>
	<path fill="#3E3A39" d="M541.588-181.499h-3.993c-0.295,0-0.534,0.239-0.534,0.534v10.229c0,0.295-0.238,0.534-0.533,0.534h-3.088
		c-0.295,0-0.534-0.239-0.534-0.534v-10.229c0-0.295-0.238-0.534-0.533-0.534h-3.994c-0.295,0-0.533-0.239-0.533-0.534v-2.562
		c0-0.295,0.238-0.534,0.533-0.534h13.21c0.295,0,0.534,0.239,0.534,0.534v2.562C542.122-181.737,541.883-181.499,541.588-181.499z"
		/>
</g>
<g>
	<path fill="#3E3A39" d="M396.546-190.05c-0.143,0-0.288-0.011-0.434-0.035c-1.494-0.238-2.513-1.642-2.274-3.135
		c0.102-0.642,0.153-1.299,0.153-1.956c0-6.797-5.529-12.326-12.326-12.326c-5.341,0-10.048,3.406-11.713,8.475
		c-0.473,1.438-2.021,2.219-3.458,1.747c-1.437-0.472-2.22-2.02-1.747-3.458c2.406-7.323,9.205-12.243,16.918-12.243
		c9.817,0,17.805,7.987,17.805,17.805c0,0.943-0.075,1.891-0.222,2.816C399.033-191.011,397.869-190.05,396.546-190.05z"/>
</g>
<g>
	<path fill="#3E3A39" d="M372.857-165.244c-6.256,6.255-16.435,6.255-22.689,0c-6.256-6.255-6.256-16.434,0-22.689
		c6.255-6.256,16.434-6.256,22.689,0c1.069,1.069,1.069,2.804,0,3.874c-1.07,1.07-2.804,1.07-3.874,0
		c-4.119-4.12-10.822-4.12-14.941,0c-4.12,4.12-4.12,10.822,0,14.942c4.119,4.119,10.822,4.119,14.941,0
		c1.07-1.07,2.804-1.07,3.874,0C373.927-168.047,373.927-166.313,372.857-165.244z"/>
</g>
<g>
	<path fill="#3E3A39" d="M400.839-160.544h-21.326c-1.513,0-2.739-1.226-2.739-2.739c0-1.513,1.227-2.739,2.739-2.739h21.326
		c6.797,0,12.327-5.529,12.327-12.326c0-6.796-5.53-12.326-12.327-12.326c-1.198,0-2.382,0.171-3.518,0.508
		c-1.449,0.432-2.975-0.395-3.405-1.846c-0.431-1.45,0.396-2.975,1.846-3.406c1.642-0.488,3.351-0.735,5.077-0.735
		c9.818,0,17.805,7.987,17.805,17.805S410.657-160.544,400.839-160.544z"/>
</g>
<linearGradient id="SVGID_1_" gradientUnits="userSpaceOnUse" x1="317.4307" y1="102.9111" x2="611.4159" y2="-32.082">
	<stop  offset="0" style="stop-color:#2EA7E0"/>
	<stop  offset="1" style="stop-color:#036EB8"/>
</linearGradient>
<rect x="303.795" y="-46.108" fill="url(#SVGID_1_)" width="317" height="165"/>
<g>
	<path fill="#FFFFFF" d="M63.105,27.466h-1.981c-0.189,0-0.343-0.153-0.343-0.343v-3.055c0-0.189-0.154-0.343-0.343-0.343H57.1
		c-0.189,0-0.343,0.153-0.343,0.343v3.055c0,0.189-0.154,0.343-0.343,0.343h-1.988c-0.189,0-0.343-0.153-0.343-0.343v-8.897
		c0-0.189,0.153-0.344,0.343-0.344h1.988c0.189,0,0.343,0.154,0.343,0.344v2.834c0,0.189,0.153,0.343,0.343,0.343h3.338
		c0.189,0,0.343-0.153,0.343-0.343v-2.834c0-0.189,0.153-0.344,0.343-0.344h1.981c0.189,0,0.343,0.154,0.343,0.344v8.897
		C63.448,27.313,63.295,27.466,63.105,27.466z"/>
	<path fill="#FFFFFF" d="M68.019,27.466h-1.988c-0.189,0-0.343-0.153-0.343-0.343v-8.897c0-0.189,0.154-0.344,0.343-0.344h1.988
		c0.189,0,0.343,0.154,0.343,0.344v8.897C68.362,27.313,68.208,27.466,68.019,27.466z"/>
	<path fill="#FFFFFF" d="M78.761,20.213h-2.564c-0.189,0-0.343,0.154-0.343,0.343v6.567c0,0.189-0.153,0.343-0.343,0.343h-1.982
		c-0.189,0-0.343-0.153-0.343-0.343v-6.567c0-0.188-0.153-0.343-0.342-0.343h-2.564c-0.189,0-0.343-0.153-0.343-0.343v-1.645
		c0-0.189,0.154-0.344,0.343-0.344h8.482c0.189,0,0.343,0.154,0.343,0.344v1.645C79.104,20.06,78.95,20.213,78.761,20.213z"/>
	<path fill="#FFFFFF" d="M88.342,20.897c0,0.354-0.057,0.702-0.17,1.041s-0.295,0.655-0.547,0.947
		c-0.251,0.293-0.592,0.53-1.021,0.712s-0.933,0.273-1.513,0.273h-1.411c-0.189,0-0.343,0.152-0.343,0.343v2.909
		c0,0.189-0.153,0.343-0.343,0.343h-1.988c-0.189,0-0.343-0.153-0.343-0.343v-8.897c0-0.189,0.153-0.344,0.343-0.344h4.084
		c0.58,0,1.084,0.094,1.513,0.277c0.429,0.185,0.769,0.424,1.021,0.72c0.251,0.295,0.434,0.615,0.547,0.961
		S88.342,20.538,88.342,20.897z M85.616,20.912c0-0.457-0.125-0.77-0.375-0.938c-0.25-0.169-0.696-0.253-1.34-0.253h-0.563v2.311
		h0.576c0.443,0,0.785-0.03,1.023-0.091c0.239-0.059,0.412-0.17,0.519-0.332C85.563,21.448,85.616,21.216,85.616,20.912z"/>
	<path fill="#FFFFFF" d="M99.313,22.668c0,0.894-0.191,1.716-0.572,2.469c-0.382,0.751-0.951,1.348-1.705,1.79
		c-0.755,0.443-1.674,0.664-2.758,0.664c-1.096,0-2.024-0.23-2.783-0.691c-0.759-0.461-1.323-1.067-1.692-1.818
		c-0.369-0.751-0.554-1.556-0.554-2.413c0-0.862,0.184-1.668,0.55-2.416c0.367-0.75,0.931-1.354,1.692-1.813
		c0.762-0.459,1.69-0.688,2.786-0.688c0.819,0,1.549,0.13,2.191,0.394c0.642,0.263,1.169,0.619,1.583,1.068
		c0.414,0.449,0.727,0.974,0.94,1.569C99.207,21.381,99.313,22.009,99.313,22.668z M96.588,22.668c0-0.359-0.049-0.688-0.147-0.986
		c-0.098-0.296-0.246-0.556-0.445-0.773c-0.198-0.219-0.44-0.39-0.726-0.512c-0.285-0.122-0.616-0.184-0.992-0.184
		c-0.716,0-1.279,0.226-1.689,0.679c-0.409,0.451-0.614,1.043-0.614,1.776c0,0.732,0.206,1.326,0.617,1.78s0.974,0.682,1.686,0.682
		c0.49,0,0.909-0.105,1.254-0.315s0.607-0.5,0.787-0.87C96.498,23.572,96.588,23.147,96.588,22.668z"/>
	<path fill="#FFFFFF" d="M103.32,27.466h-1.988c-0.189,0-0.343-0.153-0.343-0.343v-8.897c0-0.189,0.153-0.344,0.343-0.344h1.988
		c0.189,0,0.343,0.154,0.343,0.344v8.897C103.663,27.313,103.51,27.466,103.32,27.466z"/>
	<path fill="#FFFFFF" d="M115.188,27.466h-1.88c-0.1,0-0.194-0.043-0.259-0.119l-3.895-4.519c-0.208-0.241-0.603-0.095-0.603,0.224
		v4.071c0,0.189-0.154,0.343-0.343,0.343h-1.963c-0.189,0-0.343-0.153-0.343-0.343v-8.897c0-0.189,0.153-0.344,0.343-0.344h1.874
		c0.1,0,0.194,0.045,0.26,0.119l3.882,4.495c0.208,0.24,0.603,0.094,0.603-0.224v-4.047c0-0.189,0.153-0.344,0.343-0.344h1.982
		c0.189,0,0.342,0.154,0.342,0.344v8.897C115.53,27.313,115.377,27.466,115.188,27.466z"/>
	<path fill="#FFFFFF" d="M125.917,20.213h-2.564c-0.189,0-0.343,0.154-0.343,0.343v6.567c0,0.189-0.153,0.343-0.343,0.343h-1.982
		c-0.189,0-0.343-0.153-0.343-0.343v-6.567c0-0.188-0.153-0.343-0.343-0.343h-2.564c-0.189,0-0.343-0.153-0.343-0.343v-1.645
		c0-0.189,0.153-0.344,0.343-0.344h8.482c0.189,0,0.343,0.154,0.343,0.344v1.645C126.259,20.06,126.106,20.213,125.917,20.213z"/>
</g>
<g>
	<path fill="#2EA7E0" d="M32.79,14.723c-0.092,0-0.185-0.008-0.278-0.022c-0.959-0.152-1.613-1.054-1.46-2.014
		c0.065-0.412,0.099-0.834,0.099-1.255c0-4.364-3.551-7.915-7.914-7.915c-3.43,0-6.452,2.188-7.521,5.442
		c-0.304,0.923-1.298,1.425-2.22,1.121c-0.922-0.303-1.425-1.297-1.122-2.22C13.918,3.159,18.283,0,23.236,0
		c6.303,0,11.431,5.128,11.431,11.432c0,0.605-0.048,1.214-0.142,1.808C34.387,14.105,33.639,14.723,32.79,14.723z"/>
</g>
<g>
	<path fill="#036EB8" d="M17.58,30.649c-4.016,4.017-10.551,4.017-14.568,0s-4.017-10.551,0-14.568
		c4.017-4.017,10.552-4.017,14.568,0c0.687,0.688,0.687,1.801,0,2.488c-0.687,0.687-1.8,0.687-2.487,0
		c-2.645-2.646-6.949-2.646-9.594,0c-2.645,2.645-2.645,6.948,0,9.593c2.645,2.646,6.949,2.646,9.594,0
		c0.687-0.686,1.8-0.686,2.487,0C18.267,28.85,18.267,29.963,17.58,30.649z"/>
</g>
<g>
	<path fill="#2EA7E0" d="M35.546,33.667H21.854c-0.971,0-1.759-0.788-1.759-1.759c0-0.972,0.788-1.759,1.759-1.759h13.693
		c4.364,0,7.915-3.55,7.915-7.914s-3.55-7.915-7.915-7.915c-0.769,0-1.529,0.11-2.258,0.327c-0.931,0.276-1.91-0.254-2.187-1.186
		c-0.276-0.931,0.254-1.909,1.185-2.187c1.055-0.313,2.151-0.472,3.26-0.472c6.304,0,11.432,5.128,11.432,11.432
		C46.978,28.538,41.85,33.667,35.546,33.667z"/>
</g>
<g>
	<path fill="#FFFFFF" d="M461.761,42.778h-3.086c-0.295,0-0.534-0.239-0.534-0.534v-4.758c0-0.295-0.239-0.534-0.534-0.534h-5.199
		c-0.295,0-0.534,0.239-0.534,0.534v4.758c0,0.295-0.239,0.534-0.534,0.534h-3.098c-0.295,0-0.533-0.239-0.533-0.534V28.386
		c0-0.295,0.238-0.534,0.533-0.534h3.098c0.295,0,0.534,0.239,0.534,0.534V32.8c0,0.295,0.239,0.534,0.534,0.534h5.199
		c0.295,0,0.534-0.239,0.534-0.534v-4.414c0-0.295,0.239-0.534,0.534-0.534h3.086c0.295,0,0.534,0.239,0.534,0.534v13.858
		C462.295,42.539,462.056,42.778,461.761,42.778z"/>
	<path fill="#FFFFFF" d="M469.414,42.778h-3.097c-0.295,0-0.534-0.239-0.534-0.534V28.386c0-0.295,0.239-0.534,0.534-0.534h3.097
		c0.295,0,0.533,0.239,0.533,0.534v13.858C469.947,42.539,469.709,42.778,469.414,42.778z"/>
	<path fill="#FFFFFF" d="M486.144,31.481h-3.994c-0.295,0-0.533,0.239-0.533,0.534v10.229c0,0.295-0.239,0.534-0.534,0.534h-3.088
		c-0.295,0-0.534-0.239-0.534-0.534V32.016c0-0.295-0.238-0.534-0.533-0.534h-3.993c-0.295,0-0.534-0.239-0.534-0.534v-2.562
		c0-0.295,0.239-0.534,0.534-0.534h13.21c0.295,0,0.533,0.239,0.533,0.534v2.562C486.677,31.242,486.438,31.481,486.144,31.481z"/>
	<path fill="#FFFFFF" d="M501.065,32.547c0,0.554-0.088,1.094-0.264,1.622c-0.177,0.527-0.461,1.02-0.853,1.475
		c-0.392,0.456-0.922,0.826-1.589,1.109c-0.668,0.283-1.453,0.425-2.356,0.425h-2.196c-0.295,0-0.534,0.239-0.534,0.534v4.532
		c0,0.295-0.239,0.534-0.534,0.534h-3.097c-0.295,0-0.534-0.239-0.534-0.534V28.386c0-0.295,0.239-0.534,0.534-0.534h6.361
		c0.903,0,1.688,0.145,2.356,0.432c0.667,0.287,1.197,0.66,1.589,1.12c0.392,0.459,0.676,0.958,0.853,1.497
		C500.978,31.438,501.065,31.987,501.065,32.547z M496.82,32.569c0-0.711-0.194-1.197-0.583-1.459
		c-0.389-0.263-1.084-0.394-2.087-0.394h-0.877v3.598h0.896c0.69,0,1.223-0.048,1.595-0.141s0.641-0.266,0.807-0.517
		C496.737,33.405,496.82,33.043,496.82,32.569z"/>
	<path fill="#FFFFFF" d="M518.153,35.305c0,1.393-0.298,2.674-0.892,3.845c-0.595,1.17-1.48,2.1-2.655,2.788
		c-1.176,0.69-2.607,1.034-4.295,1.034c-1.707,0-3.152-0.358-4.334-1.077c-1.183-0.717-2.062-1.661-2.636-2.832
		c-0.575-1.17-0.862-2.423-0.862-3.758c0-1.343,0.286-2.598,0.857-3.764c0.571-1.167,1.449-2.107,2.635-2.822
		c1.187-0.714,2.633-1.071,4.34-1.071c1.275,0,2.413,0.204,3.412,0.614c1,0.409,1.822,0.964,2.467,1.664
		c0.644,0.699,1.132,1.515,1.464,2.444C517.987,33.3,518.153,34.278,518.153,35.305z M513.908,35.305
		c0-0.56-0.076-1.071-0.229-1.535c-0.152-0.463-0.383-0.865-0.691-1.206c-0.31-0.341-0.687-0.606-1.132-0.797
		c-0.444-0.189-0.96-0.285-1.544-0.285c-1.116,0-1.992,0.352-2.631,1.056c-0.638,0.703-0.956,1.626-0.956,2.768
		s0.32,2.066,0.961,2.772c0.642,0.707,1.517,1.062,2.626,1.062c0.764,0,1.415-0.164,1.953-0.49c0.538-0.327,0.946-0.779,1.226-1.356
		C513.769,36.714,513.908,36.052,513.908,35.305z"/>
	<path fill="#FFFFFF" d="M524.395,42.778h-3.097c-0.295,0-0.534-0.239-0.534-0.534V28.386c0-0.295,0.239-0.534,0.534-0.534h3.097
		c0.295,0,0.534,0.239,0.534,0.534v13.858C524.929,42.539,524.689,42.778,524.395,42.778z"/>
	<path fill="#FFFFFF" d="M542.878,42.778h-2.928c-0.156,0-0.304-0.067-0.405-0.186l-6.065-7.039
		c-0.323-0.375-0.938-0.146-0.938,0.349v6.342c0,0.295-0.239,0.534-0.534,0.534h-3.057c-0.296,0-0.534-0.239-0.534-0.534V28.386
		c0-0.295,0.238-0.534,0.534-0.534h2.918c0.155,0,0.303,0.068,0.404,0.186l6.047,7c0.323,0.374,0.938,0.146,0.938-0.349v-6.303
		c0-0.295,0.239-0.534,0.534-0.534h3.087c0.295,0,0.533,0.239,0.533,0.534v13.858C543.411,42.539,543.173,42.778,542.878,42.778z"/>
	<path fill="#FFFFFF" d="M559.587,31.481h-3.993c-0.295,0-0.534,0.239-0.534,0.534v10.229c0,0.295-0.238,0.534-0.533,0.534h-3.088
		c-0.295,0-0.534-0.239-0.534-0.534V32.016c0-0.295-0.238-0.534-0.533-0.534h-3.993c-0.295,0-0.534-0.239-0.534-0.534v-2.562
		c0-0.295,0.239-0.534,0.534-0.534h13.209c0.295,0,0.534,0.239,0.534,0.534v2.562C560.121,31.242,559.882,31.481,559.587,31.481z"/>
</g>
<g>
	<path fill="#FFFFFF" d="M414.545,22.93c-0.143,0-0.288-0.012-0.434-0.034c-1.494-0.238-2.513-1.642-2.274-3.136
		c0.102-0.642,0.153-1.3,0.153-1.955c0-6.797-5.529-12.327-12.326-12.327c-5.341,0-10.048,3.406-11.713,8.476
		c-0.473,1.437-2.021,2.219-3.458,1.747c-1.437-0.473-2.219-2.021-1.747-3.458C385.152,4.92,391.951,0,399.664,0
		c9.817,0,17.805,7.986,17.805,17.805c0,0.943-0.075,1.891-0.222,2.815C417.032,21.969,415.868,22.93,414.545,22.93z"/>
</g>
<g>
	<path fill="#FFFFFF" d="M390.856,47.736c-6.256,6.255-16.434,6.255-22.689,0c-6.256-6.256-6.256-16.434,0-22.689
		s16.434-6.256,22.689,0c1.069,1.069,1.069,2.804,0,3.874c-1.07,1.069-2.804,1.069-3.874,0c-4.119-4.12-10.822-4.12-14.941,0
		c-4.119,4.119-4.119,10.822,0,14.941s10.822,4.119,14.941,0c1.07-1.069,2.804-1.069,3.874,0
		C391.926,44.933,391.926,46.666,390.856,47.736z"/>
</g>
<g>
	<path fill="#FFFFFF" d="M418.838,52.436h-21.326c-1.513,0-2.739-1.227-2.739-2.739c0-1.514,1.227-2.739,2.739-2.739h21.326
		c6.797,0,12.327-5.529,12.327-12.326s-5.53-12.326-12.327-12.326c-1.198,0-2.382,0.171-3.518,0.508
		c-1.449,0.432-2.975-0.395-3.405-1.846c-0.431-1.449,0.396-2.975,1.846-3.405c1.642-0.488,3.351-0.735,5.077-0.735
		c9.818,0,17.805,7.987,17.805,17.805S428.656,52.436,418.838,52.436z"/>
</g>
</svg>
