<?xml version="1.0" encoding="utf-8"?>

<!DOCTYPE svg PUBLIC "-//W3C//DTD SVG 1.1//EN" "http://www.w3.org/Graphics/SVG/1.1/DTD/svg11.dtd">
<svg version="1.1" id="logo" xmlns="http://www.w3.org/2000/svg" xmlns:xlink="http://www.w3.org/1999/xlink" x="0px"
	 y="0px" viewBox="0 0 5040 378" enable-background="new 0 0 5040 378" xml:space="preserve">
<g>
	<rect id="Clearspace_2_" x="-349.922" y="-339.221" fill="none"/>
	<path fill="#ED1C24" d="M1191.379,244.27h181.652l-95.968-154.881L1100.87,369.137h-80.475l214.497-335.719
		c9.152-13.612,24.871-21.852,42.048-21.852c16.812,0,32.234,7.965,41.392,21.231l215.134,336.34h-80.225l-37.833-62.523h-183.928
		L1191.379,244.27 M2024.877,306.613V14.983h-68.231v320.292c0,8.71,3.68,17.297,10.057,23.46
		c6.521,6.716,15.444,10.402,24.838,10.402h310.237l40.419-62.523H2024.877 M898.325,254.443
		c66.328,0,119.632-53.622,119.632-119.736c0-66.125-53.304-119.724-119.632-119.724H600.387v354.154h68.077V77.582h225.349
		c31.605,0,57.267,25.526,57.267,57.125c0,31.537-25.662,57.484-57.267,57.484l-192.036-0.149l203.392,177.095h98.801
		L867.368,254.443H898.325 M181.439,369.137h205.856c97.915,0,176.773-79.124,176.773-176.946
		c0-97.931-78.858-177.208-176.773-177.208H181.439C83.632,14.983,4.283,94.26,4.283,192.191
		C4.283,290.013,83.632,369.137,181.439,369.137 M382.588,306.826H185.964c-63.262,0-114.516-51.433-114.516-114.635
		c0-63.442,51.254-114.609,114.516-114.609h196.624c63.486,0,114.688,51.167,114.688,114.609
		C497.275,255.394,446.074,306.826,382.588,306.826 M1675.702,369.137h210.165l39.765-62.311H1680.36
		c-63.569,0-114.783-51.433-114.783-114.635c0-63.442,51.214-114.609,114.783-114.609h199.626l40.272-62.599h-244.557
		c-97.873,0-177.39,79.277-177.39,177.208C1498.312,290.013,1577.829,369.137,1675.702,369.137 M2508.492,306.826
		c-52.459,0-96.68-35.25-110.34-83.394h290.988l40.146-62.461h-331.134c13.609-48.283,57.881-83.39,110.34-83.39h199.789
		l39.936-62.599h-244.299c-97.679,0-177.009,79.277-177.009,177.208c0,97.822,79.33,176.946,177.009,176.946H2714.1l39.928-62.311
		H2508.492 M2784.744,52.8c0-17.266,13.93-31.325,31.536-31.325c17.436,0,31.24,14.059,31.24,31.325
		c0,17.191-13.805,31.216-31.24,31.216C2798.674,84.016,2784.744,69.991,2784.744,52.8 M2816.28,92.604
		c21.907,0,39.588-17.625,39.588-39.643c0-21.99-17.681-39.981-39.588-39.981c-22.244,0-39.92,17.991-39.92,39.981
		C2776.36,74.979,2794.036,92.604,2816.28,92.604 M2812.373,29.299c5.957,0,8.759,0.244,11.818,1.12
		c7.758,2.566,8.504,9.935,8.504,12.462c0,0.626-0.26,2.078-0.524,3.689c-0.367,1.739-1.299,5.375-5.475,7.752
		c-0.504,0.324-0.781,0.602-1.708,1.033l10.215,18.464h-9.963l-9.155-17.17h-6.031v17.17h-8.89V29.299H2812.373 M2815.516,49.458
		c2.707,0,5.616-0.279,7.234-2.887c1.178-0.965,1.317-2.279,1.317-3.73c0-2.486-1.345-4.446-3.367-5.465
		c-2.37-0.928-4.096-0.928-8.327-0.928h-2.319v13.011H2815.516"/>
	<g>
		<polygon fill="#FFFFFF" points="3218.684,300.804 3111.877,76.527 3111.513,75.731 3018.771,75.731 3018.771,370.513 
			3080.503,370.513 3080.503,133.055 3190.961,369.749 3191.299,370.513 3279.609,370.513 3279.609,75.731 3218.684,75.731 		"/>
		<polygon fill="#FFFFFF" points="3408.042,243.263 3532.462,243.263 3532.462,192.852 3408.042,192.852 3408.042,126.158 
			3540.931,126.158 3540.931,75.731 3342.655,75.731 3342.655,370.513 3545.378,370.513 3545.378,319.271 3408.042,319.271 		"/>
		<polygon fill="#FFFFFF" points="3576.081,75.731 3576.081,126.954 3662.911,126.954 3662.911,370.513 3728.686,370.513 
			3728.686,126.954 3815.511,126.954 3815.511,75.731 		"/>
		<g>
			<path fill="#FFFFFF" d="M3890.446,283.917c0.781,20.18,3.183,57.741,70.208,57.741c60.602,0,68.315-37.562,68.315-52.077
				c0-32.724-26.292-39.212-67.083-49.313c-44.414-10.86-64.217-15.725-79.166-25.821c-23.838-16.166-30.299-37.982-30.299-57.357
				c0-59.372,56.164-85.236,111.086-85.236c19.37,0,58.575,3.232,81.985,28.692c16.186,17.753,16.97,37.553,17.806,49.68h-42.043
				c-1.986-36.359-32.728-44.436-61.378-44.436c-40.386,0-64.657,18.177-64.657,47.25c0,25.855,17.016,34.746,52.517,43.225
				c69.474,17.752,77.159,19.389,94.141,30.712c27.059,17.734,29.076,46.057,29.076,58.143c0,51.709-40.422,90.92-115.123,90.92
				c-22.204,0-67.479-3.683-90.442-33.169c-16.597-21.398-17.006-44.819-17.006-58.954H3890.446z"/>
			<path fill="#FFFFFF" d="M4175.176,77.52v180.54c0,31.106,6.869,44.016,12.929,52.534c18.145,24.235,46.433,28.678,66.618,28.678
				c78.801,0,78.801-61.809,78.801-82.826V77.52h39.191v179.72c0,15.794-0.403,48.464-23.859,77.589
				c-28.672,35.922-73.121,40.391-94.133,40.391c-27.425,0-75.885-7.689-102.973-46.495c-8.868-12.924-16.937-29.874-16.937-73.499
				V77.52H4175.176z"/>
			<path fill="#FFFFFF" d="M4456.549,77.52h40.379v291.617h-40.379V77.52z"/>
			<path fill="#FFFFFF" d="M4653.217,369.137V111.849h-97.774V77.52h235.522v34.329h-97.804v257.288H4653.217z"/>
			<path fill="#FFFFFF" d="M4838.845,77.52h183.032v34.329h-142.578v90.88h135.655v33.942h-135.655v96.917h145.754v35.549h-186.208
				V77.52z"/>
		</g>
	</g>
</g>
</svg>
